<svg width="192" height="192" viewBox="0 0 192 192" fill="none" xmlns="http://www.w3.org/2000/svg" role="img" aria-labelledby="title desc">
  <title id="title">Metis logo</title>
  <desc id="desc">A geometric Metis monogram inside a faceted local-rule engine mark.</desc>
  <defs>
    <linearGradient id="shell" x1="34" y1="24" x2="162" y2="168" gradientUnits="userSpaceOnUse">
      <stop offset="0" stop-color="#171A23"/>
      <stop offset="0.5" stop-color="#0D1213"/>
      <stop offset="1" stop-color="#16111F"/>
    </linearGradient>
    <linearGradient id="rim" x1="37" y1="27" x2="153" y2="163" gradientUnits="userSpaceOnUse">
      <stop offset="0" stop-color="#D6F7E7"/>
      <stop offset="0.38" stop-color="#56D39A"/>
      <stop offset="0.7" stop-color="#7B7CFF"/>
      <stop offset="1" stop-color="#F0E6FF"/>
    </linearGradient>
    <linearGradient id="mono" x1="52" y1="55" x2="144" y2="133" gradientUnits="userSpaceOnUse">
      <stop offset="0" stop-color="#FFFFFF"/>
      <stop offset="0.46" stop-color="#D8F6E8"/>
      <stop offset="1" stop-color="#C9C6FF"/>
    </linearGradient>
    <linearGradient id="rule" x1="54" y1="140" x2="138" y2="140" gradientUnits="userSpaceOnUse">
      <stop stop-color="#52E4A4"/>
      <stop offset="1" stop-color="#8E89FF"/>
    </linearGradient>
    <filter id="softGlow" x="14" y="10" width="164" height="172" color-interpolation-filters="sRGB" filterUnits="userSpaceOnUse">
      <feFlood flood-opacity="0" result="BackgroundImageFix"/>
      <feColorMatrix in="SourceAlpha" result="hardAlpha" type="matrix" values="0 0 0 0 0 0 0 0 0 0 0 0 0 0 0 0 0 0 127 0"/>
      <feOffset dy="2"/>
      <feGaussianBlur stdDeviation="8"/>
      <feComposite in2="hardAlpha" operator="out"/>
      <feColorMatrix type="matrix" values="0 0 0 0 0.329 0 0 0 0 0.949 0 0 0 0 0.68 0 0 0 0.26 0"/>
      <feBlend in2="BackgroundImageFix" mode="normal" result="effect1_dropShadow_1_2"/>
      <feBlend in="SourceGraphic" in2="effect1_dropShadow_1_2" mode="normal" result="shape"/>
    </filter>
  </defs>
  <g filter="url(#softGlow)">
    <path d="M96 18L157.487 53.5V124.5L96 160L34.5128 124.5V53.5L96 18Z" fill="url(#shell)"/>
    <path d="M96 18L157.487 53.5V124.5L96 160L34.5128 124.5V53.5L96 18Z" stroke="url(#rim)" stroke-width="3"/>
  </g>
  <path d="M96 34L143.765 61.5V116.5L96 144L48.2346 116.5V61.5L96 34Z" stroke="#F9FFFC" stroke-opacity="0.12" stroke-width="1.5"/>
  <path d="M62 119V65L81.8 94.4L96 70.8L110.2 94.4L130 65V119" stroke="url(#mono)" stroke-width="9" stroke-linecap="round" stroke-linejoin="round"/>
  <path d="M62 119V65L81.8 94.4L96 70.8L110.2 94.4L130 65V119" stroke="#07110E" stroke-opacity="0.42" stroke-width="3" stroke-linecap="round" stroke-linejoin="round"/>
  <path d="M55 139H137" stroke="url(#rule)" stroke-width="5" stroke-linecap="round"/>
  <path d="M73 139H119" stroke="#F8FFFB" stroke-opacity="0.64" stroke-width="2" stroke-linecap="round"/>
  <circle cx="61" cy="54" r="4" fill="#77F0B7"/>
  <circle cx="96" cy="44" r="4" fill="#F8FFFB"/>
  <circle cx="131" cy="54" r="4" fill="#A5A2FF"/>
  <path d="M61 54L81.8 94.4M96 44V70.8M131 54L110.2 94.4" stroke="#F8FFFB" stroke-opacity="0.16" stroke-width="1.5" stroke-linecap="round"/>
  <path d="M96 18L157.487 53.5V124.5L96 160L34.5128 124.5V53.5L96 18Z" stroke="#000000" stroke-opacity="0.35" stroke-width="1"/>
</svg>
